<svg xmlns="http://www.w3.org/2000/svg" xmlns:xlink="http://www.w3.org/1999/xlink" width="380" height="152pt" viewBox="0 0 285.15 152"><g id="graph0" class="graph" transform="scale(1 1) rotate(0) translate(4 148)"><title>G</title><polygon fill="#fff" stroke="transparent" points="-4 4 -4 -148 281.151 -148 281.151 4 -4 4"/><g id="node1" class="node"><title>Interval</title><ellipse cx="37.117" cy="-72" fill="none" stroke="#000" rx="37.233" ry="18"/><text x="37.117" y="-67.8" fill="#000" font-family="Times,serif" font-size="14" text-anchor="middle">interval</text></g><g id="node2" class="node"><title>Result1</title><ellipse cx="213.906" cy="-126" fill="none" stroke="#000" rx="63.492" ry="18"/><text x="213.906" y="-121.8" fill="#000" font-family="Times,serif" font-size="14" text-anchor="middle">MAP &lt;0 * 10&gt;</text></g><g id="edge1" class="edge"><title>Interval-&gt;Result1</title><path fill="none" stroke="#000" d="M67.9676,-82.2438C75.8641,-84.8194 84.3515,-87.5476 92.2331,-90 114.2048,-96.8368 138.5038,-104.088 159.5726,-110.2772"/><polygon fill="#000" stroke="#000" points="158.737 -113.679 169.318 -113.132 160.705 -106.962 158.737 -113.679"/><text x="112.447" y="-104.8" fill="#000" font-family="Times,serif" font-size="14" text-anchor="middle">next(0)</text></g><g id="node3" class="node"><title>Result2</title><ellipse cx="213.906" cy="-72" fill="none" stroke="#000" rx="63.492" ry="18"/><text x="213.906" y="-67.8" fill="#000" font-family="Times,serif" font-size="14" text-anchor="middle">MAP &lt;1 * 10&gt;</text></g><g id="edge2" class="edge"><title>Interval-&gt;Result2</title><path fill="none" stroke="#000" d="M74.6091,-72C93.6825,-72 117.5523,-72 140.1164,-72"/><polygon fill="#000" stroke="#000" points="140.37 -75.5 150.37 -72 140.37 -68.5 140.37 -75.5"/><text x="112.447" y="-74.8" fill="#000" font-family="Times,serif" font-size="14" text-anchor="middle">next(1)</text></g><g id="node4" class="node"><title>Result3</title><ellipse cx="213.906" cy="-18" fill="none" stroke="#000" rx="63.492" ry="18"/><text x="213.906" y="-13.8" fill="#000" font-family="Times,serif" font-size="14" text-anchor="middle">MAP &lt;2 * 10&gt;</text></g><g id="edge3" class="edge"><title>Interval-&gt;Result3</title><path fill="none" stroke="#000" d="M67.9676,-61.7562C75.8641,-59.1806 84.3515,-56.4524 92.2331,-54 114.2048,-47.1632 138.5038,-39.912 159.5726,-33.7228"/><polygon fill="#000" stroke="#000" points="160.705 -37.038 169.318 -30.868 158.737 -30.321 160.705 -37.038"/><text x="112.447" y="-56.8" fill="#000" font-family="Times,serif" font-size="14" text-anchor="middle">next(2)</text></g></g></svg>